<?xml version="1.0" standalone="no"?><!DOCTYPE svg PUBLIC "-//W3C//DTD SVG 1.1//EN" "http://www.w3.org/Graphics/SVG/1.1/DTD/svg11.dtd"><svg t="1553283966087" class="icon" style="" viewBox="0 0 1024 1024" version="1.1" xmlns="http://www.w3.org/2000/svg" p-id="19414" xmlns:xlink="http://www.w3.org/1999/xlink" width="200" height="200"><defs><style type="text/css"></style></defs><path d="M157.5 407.2h112V531h-112zM780.2 407.2h112V531h-112z" fill="#B2BBC5" p-id="19415"></path><path d="M966 146.2c5.5-25-13.1-48.8-38.7-48.8-18.5 0-34.7 12.9-38.6 31-8.9 41.6-35.5 76.5-71.2 96.4V168c0-19.8-16.2-35.9-35.9-35.9h-7.4c-19.8 0-35.9 16.2-35.9 35.9v74.7h-61.7v-29.3c0-21.8-17.8-39.6-39.6-39.6s-39.6 17.8-39.6 39.6v29.3H458v-29.3c0-21.8-17.8-39.6-39.6-39.6s-39.6 17.8-39.6 39.6v29.3h-61.7V168c0-19.8-16.2-35.9-35.9-35.9h-7.4c-19.8 0-35.9 16.2-35.9 35.9v56.8c-35.7-19.9-62.3-54.8-71.2-96.4-3.9-18.1-20-31-38.6-31-25.6 0-44.2 23.8-38.7 48.8 22.1 100.4 110.9 175.6 216.8 175.6H319c-9.9 9.7-18.9 20.3-27.3 31.3H99.1v117.5c0 64.8 52.7 117.5 117.5 117.5h19.1v311.2c0 25.6 20.8 46.4 46.4 46.4h491.5c25.6 0 46.4-20.8 46.4-46.4V588.1h19c64.8 0 117.5-52.7 117.5-117.5V353.1H763.8c-8.4-11.1-17.4-21.6-27.3-31.3h12.8c105.8 0 194.6-75.3 216.7-175.6zM236.2 508.9h-19.7c-21.1 0-38.3-17.2-38.3-38.2v-38.3h71.7c-8 24.2-12.7 49.8-13.7 76.5z m641-76.5v38.3c0 21.1-17.2 38.2-38.3 38.2h-19.6c-1-26.6-5.7-52.3-13.8-76.5h71.7z m-136.5 87.5V850c0 9.1-7.4 16.4-16.4 16.4H567.4v-67.6l65.7-68.8c14.2-14.9 3.2-38.9-17.8-38.9H440.2c-21 0-32 24-17.8 38.9l65.7 68.8v67.6H331.3c-9.1 0-16.4-7.4-16.4-16.4V519.9c0-109.4 88.7-198.1 198.1-198.1h29.7c109.3 0 198 88.7 198 198.1z" fill="#242529" p-id="19416"></path></svg>